<?xml version="1.0" encoding="utf-8"?>
<!-- Generator: Adobe Illustrator 16.0.0, SVG Export Plug-In . SVG Version: 6.00 Build 0)  -->
<!DOCTYPE svg PUBLIC "-//W3C//DTD SVG 1.1//EN" "http://www.w3.org/Graphics/SVG/1.1/DTD/svg11.dtd">
<svg version="1.1" id="图层_1" xmlns="http://www.w3.org/2000/svg" xmlns:xlink="http://www.w3.org/1999/xlink" x="0px" y="0px"
	 width="1786.808px" height="392.598px" viewBox="0 0 1786.808 392.598" enable-background="new 0 0 1786.808 392.598"
	 xml:space="preserve">
<g>
	<g>
		<g>
			<polygon fill="#727171" points="852.286,55.487 852.286,0 806.019,0 806.019,392.598 852.286,392.598 852.286,110.059 			"/>
		</g>
		<g>
			<polygon fill="#727171" points="974.573,219.434 1002.316,219.434 1002.316,173.166 806.018,173.165 806.018,219.433 
				947.287,219.434 			"/>
		</g>
		<g>
			<path fill="#727171" d="M1188.673,22c46.489,0,90.195,18.104,123.068,50.977s50.977,76.579,50.977,123.068
				s-18.104,90.196-50.977,123.068c-32.873,32.873-76.579,50.977-123.068,50.977s-90.196-18.104-123.068-50.977
				c-32.873-32.872-50.977-76.579-50.977-123.068s18.104-90.195,50.977-123.068C1098.477,40.104,1142.184,22,1188.673,22
				 M1188.673,0c-108.273,0-196.045,87.772-196.045,196.045c0,108.273,87.771,196.045,196.045,196.045
				c108.272,0,196.045-87.771,196.045-196.045C1384.718,87.772,1296.945,0,1188.673,0L1188.673,0z"/>
		</g>
		<g>
			<path fill="#727171" d="M1590.763,22.255c46.489,0,90.195,18.104,123.068,50.977s50.977,76.579,50.977,123.068
				s-18.104,90.196-50.977,123.068c-32.873,32.873-76.579,50.977-123.068,50.977s-90.196-18.104-123.068-50.977
				c-32.873-32.872-50.977-76.579-50.977-123.068s18.104-90.195,50.977-123.068C1500.566,40.358,1544.273,22.255,1590.763,22.255
				 M1590.763,0.255c-108.273,0-196.045,87.772-196.045,196.045c0,108.273,87.771,196.045,196.045,196.045
				c108.272,0,196.045-87.771,196.045-196.045C1786.808,88.027,1699.035,0.255,1590.763,0.255L1590.763,0.255z"/>
		</g>
	</g>
	<g>
		<path fill="#727171" d="M770.753,22.255V370.09H422.917V22.255H770.753 M792.753,0.255H400.917V392.09h391.835V0.255
			L792.753,0.255z"/>
	</g>
	<g>
		<path fill="#727171" d="M369.835,22.128v347.835H22V22.128H369.835 M391.835,0.128H0v391.835h391.835V0.128L391.835,0.128z"/>
	</g>
</g>
</svg>
