<?xml version="1.0" standalone="no"?><!DOCTYPE svg PUBLIC "-//W3C//DTD SVG 1.1//EN" "http://www.w3.org/Graphics/SVG/1.1/DTD/svg11.dtd"><svg t="1546483960256" class="icon" style="" viewBox="0 0 1024 1024" version="1.1" xmlns="http://www.w3.org/2000/svg" p-id="3567" xmlns:xlink="http://www.w3.org/1999/xlink" width="200" height="200"><defs><style type="text/css"></style></defs><path d="M490.214834 105.763812l406.716118 387.946636c10.015098 9.553587 10.015098 27.025517 0 36.579103L490.214834 918.236188c-13.725606 13.091156-34.692127 2.037403-34.692127-18.289552L455.522708 511.998977 455.522708 124.053364C455.521684 103.726409 476.489228 92.671633 490.214834 105.763812z" p-id="3568" fill="#ffffff"></path><path d="M173.848467 229.399667l276.56692 269.877567c3.40454 3.321652 5.107321 8.021697 5.107321 12.721743 0 4.700045-1.702782 9.400091-5.107321 12.722766L173.848467 794.598286c-9.333576 9.107425-23.591301 1.417279-23.591301-12.722766L150.257166 242.123456C150.257166 227.983411 164.514891 220.293265 173.848467 229.399667z" p-id="3569" fill="#ffffff"></path></svg>